<svg width="110" height="102" viewBox="0 0 110 102" fill="none" xmlns="http://www.w3.org/2000/svg">
    <path fill-rule="evenodd" clip-rule="evenodd" d="M55.3597 0.208766C65.8712 -0.925123 76.6235 2.61432 85.0616 9.50167C93.4136 16.3187 97.2618 27.172 101.235 37.6534C105.555 49.0484 112.591 61.0087 109.023 72.7055C105.458 84.3931 93.6669 90.2963 83.5012 95.7871C74.7352 100.522 65.091 102.893 55.3597 101.691C46.3933 100.583 38.5256 95.5348 31.5227 89.366C24.8537 83.4914 21.0186 75.4234 16.5265 67.4831C10.3781 56.6149 -2.63413 46.7757 0.47194 34.4799C3.54444 22.3169 19.5816 21.7726 29.6637 15.4775C38.3401 10.0601 45.3956 1.28359 55.3597 0.208766Z" fill="#799CF0"/>
    <path d="M51 61C51 56.5817 54.5817 53 59 53C63.4183 53 67 56.5817 67 61H65C65 57.6863 62.3137 55 59 55C55.6863 55 53 57.6863 53 61H51ZM59 52C55.685 52 53 49.315 53 46C53 42.685 55.685 40 59 40C62.315 40 65 42.685 65 46C65 49.315 62.315 52 59 52ZM59 50C61.21 50 63 48.21 63 46C63 43.79 61.21 42 59 42C56.79 42 55 43.79 55 46C55 48.21 56.79 50 59 50Z" fill="#FFFEFA"/>
</svg>