<svg width="163" height="46" viewBox="0 0 163 46" fill="none" xmlns="http://www.w3.org/2000/svg">
<g id="Frame" clip-path="url(#clip0_386_156)">
<mask id="mask0_386_156" style="mask-type:alpha" maskUnits="userSpaceOnUse" x="0" y="0" width="163" height="46">
<g id="Group">
<path id="Vector" d="M129.058 6.93614C130.021 6.51236 131.199 7.04209 131.52 7.99559C131.949 8.94909 131.413 10.1145 130.45 10.4323C129.486 10.8561 128.308 10.3264 127.987 9.37287C127.666 8.41937 128.094 7.35992 129.058 6.93614Z" fill="#455CC7"/>
<path id="Vector_2" d="M131.199 16.789C131.199 16.8949 131.306 16.8949 131.413 16.789L131.627 15.8355C131.627 15.7295 131.734 15.7295 131.734 15.8355L132.377 16.683C132.377 16.789 132.484 16.683 132.591 16.5771V15.5176C132.591 15.5176 132.591 15.4117 132.698 15.4117H132.805L133.555 16.1533C133.662 16.2592 133.769 16.1533 133.662 16.0474L133.555 14.9879C133.555 14.882 133.662 14.882 133.662 14.882L134.518 15.4117C134.625 15.4117 134.625 15.4117 134.625 15.3057L134.304 14.1404L131.734 11.2798H131.627C131.52 11.3858 131.306 11.4917 131.199 11.4917C130.985 11.5977 130.878 11.5977 130.664 11.5977C130.664 11.5977 130.557 11.5977 130.557 11.7036L130.771 15.5176L131.199 16.789Z" fill="#455CC7"/>
<path id="Vector_3" d="M128.308 0.579459C128.308 0.473514 128.201 0.473514 128.094 0.579459L127.987 1.53296C127.987 1.63891 127.88 1.63891 127.88 1.53296L127.237 0.791348C127.237 0.685403 127.13 0.791348 127.13 0.897292V2.06268H127.023L126.167 1.21513C126.06 1.10918 125.953 1.21513 126.06 1.32107L126.167 2.38052C126.167 2.48646 126.06 2.48646 126.06 2.48646L125.096 1.85079C124.989 1.85079 124.989 1.85079 124.989 1.95674L125.31 3.12213L127.88 5.98264H127.987C128.094 5.87669 128.308 5.77075 128.415 5.6648C128.629 5.55886 128.736 5.55886 128.951 5.55886C128.951 5.55886 129.058 5.55886 129.058 5.45291L128.844 1.63891L128.308 0.579459Z" fill="#455CC7"/>
<path id="Vector_4" d="M138.052 7.25395C138.159 7.25395 138.052 7.14801 138.052 7.04206L136.981 6.83017C136.874 6.83017 136.874 6.72423 136.981 6.72423L137.838 6.08856C137.945 5.98261 137.838 5.98261 137.838 5.98261H136.767C136.767 5.98261 136.66 5.98261 136.66 5.87667V5.77072L137.409 5.02911C137.516 4.92317 137.409 4.92317 137.302 4.92317L136.232 5.02911C136.124 5.02911 136.124 4.92317 136.124 4.92317L136.66 4.07561C136.66 3.96967 136.66 3.96967 136.553 3.96967L135.375 4.2875L132.591 6.93612V7.04206C132.698 7.14801 132.805 7.35989 132.912 7.46584C133.019 7.67773 133.019 7.78367 133.019 7.99556C133.019 7.99556 133.019 8.10151 133.126 8.10151L136.981 7.88962L138.052 7.25395Z" fill="#455CC7"/>
<path id="Vector_5" d="M121.563 10.1145C121.456 10.1145 121.456 10.2204 121.563 10.3264L122.526 10.5383C122.633 10.5383 122.633 10.6442 122.526 10.6442L121.67 11.2799C121.563 11.2799 121.67 11.3858 121.777 11.3858H122.847C122.847 11.3858 122.955 11.3858 122.955 11.4918V11.5977L122.205 12.3393C122.098 12.4453 122.205 12.4453 122.312 12.4453L123.383 12.3393C123.49 12.3393 123.49 12.4453 123.49 12.4453L122.955 13.2928C122.955 13.3988 122.955 13.3988 123.062 13.3988L124.239 13.0809L127.13 10.5383V10.4323C127.023 10.3264 126.916 10.1145 126.809 10.0085C126.702 9.79664 126.702 9.6907 126.702 9.47881C126.702 9.47881 126.702 9.37286 126.595 9.37286L122.74 9.58475L121.563 10.1145Z" fill="#455CC7"/>
<path id="Vector_6" d="M136.66 13.3988C136.767 13.3988 136.767 13.2928 136.767 13.2928L136.231 12.4453C136.231 12.3393 136.231 12.3393 136.339 12.3393L137.302 12.4453C137.409 12.4453 137.409 12.3393 137.409 12.3393L136.66 11.5977V11.4918C136.66 11.4918 136.66 11.3858 136.767 11.3858H137.838C137.945 11.3858 137.945 11.2799 137.838 11.2799L136.981 10.6442C136.874 10.6442 136.981 10.5383 136.981 10.5383L137.945 10.3264C138.052 10.3264 138.052 10.2204 137.945 10.1145L136.874 9.58475L133.019 9.37286C133.019 9.37286 132.912 9.37286 132.912 9.47881C132.912 9.6907 132.805 9.79664 132.805 10.0085C132.698 10.2204 132.591 10.3264 132.484 10.4323V10.5383L135.375 13.0809L136.66 13.3988Z" fill="#455CC7"/>
<path id="Vector_7" d="M122.955 3.96967C122.848 3.96967 122.848 4.07561 122.848 4.07561L123.383 4.92317C123.383 5.02911 123.383 5.02911 123.276 5.02911L122.312 4.92317C122.205 4.92317 122.205 5.02911 122.205 5.02911L122.955 5.77072V5.87667C122.955 5.87667 122.955 5.98261 122.848 5.87667H121.777C121.67 5.87667 121.67 5.98261 121.777 6.08856L122.633 6.72423C122.74 6.72423 122.633 6.83017 122.633 6.83017L121.67 7.04206C121.563 7.04206 121.563 7.14801 121.67 7.25395L122.74 7.78367L126.595 7.99556C126.595 7.99556 126.702 7.99556 126.702 7.88962C126.702 7.67773 126.809 7.57178 126.809 7.3599C126.916 7.14801 127.023 7.04206 127.13 6.93612V6.83017L124.239 4.2875L122.955 3.96967Z" fill="#455CC7"/>
<path id="Vector_8" d="M134.625 1.95674C134.625 1.85079 134.518 1.85079 134.518 1.85079L133.662 2.38052C133.555 2.38052 133.555 2.38052 133.555 2.27457L133.662 1.32107C133.662 1.21513 133.555 1.21513 133.555 1.21513L132.805 1.95674H132.698C132.698 1.95674 132.591 1.95674 132.698 1.85079V0.791348C132.698 0.685403 132.591 0.685403 132.484 0.791348L131.842 1.63891C131.842 1.74485 131.734 1.63891 131.734 1.63891L131.52 0.579459C131.52 0.473514 131.413 0.473514 131.306 0.579459L130.771 1.63891L130.45 5.45291C130.45 5.45291 130.45 5.55886 130.557 5.55886C130.771 5.55886 130.878 5.6648 131.092 5.6648C131.306 5.77075 131.413 5.87669 131.52 5.98264H131.627L134.197 3.12213L134.625 1.95674Z" fill="#455CC7"/>
<path id="Vector_9" d="M124.989 15.4117C124.989 15.5176 125.096 15.5176 125.096 15.5176L125.953 14.9879C126.06 14.9879 126.06 14.9879 126.06 15.0939L125.953 16.0474C125.953 16.1533 126.06 16.1533 126.06 16.1533L126.809 15.4117H126.916C126.916 15.4117 127.023 15.4117 127.023 15.5176V16.5771C127.023 16.683 127.13 16.683 127.237 16.5771L127.88 15.7295C127.88 15.6236 127.987 15.7295 128.094 15.7295L128.308 16.789C128.308 16.8949 128.415 16.8949 128.522 16.789L129.058 15.7295L129.272 11.9155C129.272 11.9155 129.272 11.8096 129.165 11.8096C128.951 11.8096 128.844 11.7036 128.629 11.7036C128.415 11.5977 128.308 11.4917 128.201 11.3858H128.094L125.524 14.2463L124.989 15.4117Z" fill="#455CC7"/>
<path id="Vector_10" d="M27.8746 36.4947C27.8746 41.3681 24.02 45.0762 16.3108 45.0762H0.25V12.4453H15.4542C23.4846 12.4453 26.1614 17.1068 26.1614 21.0268C26.1614 25.2646 24.02 27.2775 21.5573 28.337C24.4483 29.2905 27.8746 31.6212 27.8746 36.4947ZM3.99752 27.0656H15.3472C18.8805 27.0656 22.1998 25.3705 22.1998 21.4505C22.1998 18.696 20.3795 16.0474 15.7754 16.0474H3.99752V27.0656ZM24.02 36.1769C24.02 33.1045 21.6644 30.3499 16.3108 30.3499H3.99752V41.58H16.632C21.3432 41.58 24.02 39.5671 24.02 36.1769Z" fill="#455CC7"/>
<path id="Vector_11" d="M52.1799 37.978H56.3558C54.5355 42.4276 50.788 45.5 44.6849 45.5C36.8686 45.5 31.7292 39.885 31.7292 32.7867C31.7292 25.7943 36.5474 20.0733 44.4708 20.0733C52.3941 20.0733 57.2123 25.6884 57.2123 32.7867V34.2699H35.6909C36.2262 38.6136 39.5454 42.1098 44.792 42.1098C48.3254 42.1098 50.788 40.4147 52.1799 37.978ZM35.6909 30.7737H53.1436C52.3941 26.5359 49.3961 23.3576 44.4708 23.3576C39.4384 23.3576 36.4404 26.6419 35.6909 30.7737Z" fill="#455CC7"/>
<path id="Vector_12" d="M61.8164 10.6442H65.671V45.0762H61.8164V10.6442Z" fill="#455CC7"/>
<path id="Vector_13" d="M92.3319 24.417V20.3911H96.1865V44.9703H92.3319V41.0503C90.4046 43.699 87.4066 45.3941 83.1238 45.3941C75.6287 45.3941 70.7034 39.779 70.7034 32.6807C70.7034 25.6884 75.6287 19.9673 83.1238 19.9673C87.4066 20.0733 90.4046 21.7684 92.3319 24.417ZM92.5461 32.7867C92.5461 27.7013 89.3339 23.4635 83.6591 23.4635C77.9843 23.4635 74.558 27.7013 74.558 32.7867C74.558 37.872 77.9843 42.1098 83.6591 42.1098C89.3339 42.1098 92.5461 37.872 92.5461 32.7867Z" fill="#455CC7"/>
<path id="Vector_14" d="M120.064 20.4971H124.346L114.282 45.0762H109.785L99.7199 20.4971H104.003L112.033 41.1563L120.064 20.4971Z" fill="#455CC7"/>
<path id="Vector_15" d="M127.88 20.4971H131.734V45.0762H127.88V20.4971Z" fill="#455CC7"/>
<path id="Vector_16" d="M158.395 24.417V20.3911H162.25V44.9703H158.395V41.0503C156.468 43.699 153.47 45.3941 149.187 45.3941C141.692 45.3941 136.767 39.779 136.767 32.6807C136.767 25.6884 141.692 19.9673 149.187 19.9673C153.47 20.0733 156.468 21.7684 158.395 24.417ZM158.61 32.7867C158.61 27.7013 155.397 23.4635 149.723 23.4635C144.048 23.4635 140.621 27.7013 140.621 32.7867C140.621 37.872 144.048 42.1098 149.723 42.1098C155.397 42.1098 158.61 37.872 158.61 32.7867Z" fill="#455CC7"/>
</g>
</mask>
<g mask="url(#mask0_386_156)">
<rect id="Rectangle 3" x="0.25" y="0.5" width="162" height="45" fill="black"/>
</g>
</g>
<defs>
<clipPath id="clip0_386_156">
<rect width="162" height="45" fill="white" transform="translate(0.25 0.5)"/>
</clipPath>
</defs>
</svg>
