<svg width="116" height="48" viewBox="0 0 116 48" fill="none" xmlns="http://www.w3.org/2000/svg">
    <mask id="mask0_212_2458" style="mask-type:alpha" maskUnits="userSpaceOnUse" x="0" y="0" width="116"
          height="48">
        <g clip-path="url(#clip0_212_2458)">
            <path
                    d="M23.6658 0.828369C24.6517 5.14434 26.3235 8.99026 29.1634 12.537L18.704 12.5691C14.7174 7.97536 13.5493 3.07182 13.2385 0.871102C16.6571 0.871102 20.2579 0.828369 23.6658 0.828369Z"
                    fill="#007ABB" />
            <path
                    d="M10.4416 0.839058C11.1703 5.30459 12.9922 9.05436 15.9071 12.5477H5.65127C1.76114 7.86854 0.635895 2.94363 0.23938 0.796326C3.64726 0.796326 7.023 0.839058 10.4416 0.839058Z"
                    fill="#007ABB" />
            <path
                    d="M18.3717 24.609C23.2478 19.4063 26.4842 17.3658 31.5317 15.2185L0.26062 15.2078V24.609H18.3717Z"
                    fill="#007ABB" />
            <path
                    d="M11.4274 36.9586C12.7884 33.0166 14.0209 30.6556 16.1427 27.6002L0.25 27.5468V36.98L11.4274 36.9586Z"
                    fill="#007ABB" />
            <path
                    d="M34.361 47.2358C34.5861 42.8771 37.2223 37.8667 44.3489 36.9052L70.6367 37.0975V27.675L43.3094 27.5789C29.4206 28.7006 24.8768 41.3921 24.9411 47.2358H34.361Z"
                    fill="#007ABB" />
            <path
                    d="M22.0476 47.1717C22.5406 41.1785 24.2874 36.0292 28.424 31.8094C34.5754 25.5491 42.1091 24.5128 45.3241 24.6517L70.8082 24.5342V15.1544H44.0167C35.7649 15.5604 27.6096 19.2888 21.8762 25.2606C19.1006 28.1451 16.8929 31.3073 15.4569 34.5656C12.8849 40.4093 12.9599 45.1205 12.7992 47.1503L22.0476 47.1717Z"
                    fill="#007ABB" />
            <path
                    d="M72.0835 15.2505H90.9447V21.1583H90.3339C90.1303 20.0686 89.7873 19.1819 89.3051 18.4875C88.8229 17.7931 88.2442 17.3231 87.5797 17.056C86.9153 16.7889 85.8865 16.6607 84.5148 16.6607H80.5175V25.1431H83.4002C86.5188 25.1431 88.78 25.6879 90.1946 26.7776C91.6092 27.8673 92.3058 29.3309 92.3058 31.147C92.3058 32.3862 91.9521 33.4652 91.2341 34.3626C90.5161 35.26 89.6159 35.933 88.5335 36.371C87.4511 36.809 85.8758 37.0334 83.8075 37.0334H72.0835V36.4458C73.4338 36.4245 74.3018 36.2428 74.6876 35.901C75.0627 35.5698 75.2556 34.8327 75.2556 33.7003V18.7867C75.2556 17.5581 75.0627 16.7569 74.6769 16.3936C74.2911 16.0304 73.4231 15.8488 72.0835 15.8488V15.2505ZM80.5175 26.5533V33.1234C80.5175 34.1703 80.6568 34.8968 80.9569 35.3134C81.2462 35.7407 81.782 35.9544 82.5751 35.9544C83.8289 35.9544 84.7827 35.5271 85.4257 34.6831C86.0687 33.8391 86.3795 32.7815 86.3795 31.5209C86.3795 30.303 86.0901 29.2775 85.5114 28.4442C84.9327 27.6109 84.279 27.0874 83.5717 26.8738C82.8323 26.6601 81.8249 26.5533 80.5175 26.5533Z"
                    fill="#007ABB" />
            <path
                    d="M104.726 15.2505H115.261V15.8488C113.846 15.8488 112.989 15.9877 112.689 16.2761C112.378 16.5646 112.217 17.2483 112.217 18.3273V33.7003C112.217 34.5122 112.271 35.0784 112.367 35.3989C112.474 35.7087 112.689 35.9651 113.032 36.1467C113.364 36.339 113.867 36.4351 114.543 36.4351C114.661 36.4351 114.896 36.4458 115.261 36.4565V37.0441H103.89V36.4565C104.876 36.4351 105.551 36.3604 105.916 36.2322C106.269 36.104 106.537 35.8689 106.709 35.5378C106.88 35.2066 106.966 34.7045 106.966 34.0421V27.002C104.415 28.316 102.101 28.9783 100.032 28.9783C98.8964 28.9783 97.9212 28.7967 97.1174 28.4228C96.3137 28.0596 95.7457 27.5254 95.4028 26.831C95.0706 26.1366 94.8991 25.1324 94.8991 23.8077V18.7119C94.8991 17.494 94.6848 16.7141 94.2561 16.3616C93.8274 16.0197 93.0344 15.8488 91.8984 15.8488V15.2505H102.411V15.8488C101.704 15.8488 101.147 15.9984 100.75 16.2868C100.354 16.5859 100.15 17.1949 100.15 18.1243V23.968C100.15 24.6303 100.204 25.1324 100.311 25.4636C100.418 25.7948 100.686 26.0939 101.104 26.3503C101.522 26.6067 102.069 26.7456 102.733 26.7456C104.083 26.7456 105.498 26.3717 106.955 25.6238V18.9255C106.955 17.9641 106.912 17.3124 106.827 16.9705C106.73 16.6287 106.527 16.3616 106.205 16.1479C105.884 15.945 105.38 15.8488 104.716 15.8488V15.2505H104.726Z"
                    fill="#007ABB" />
        </g>
    </mask>
    <g mask="url(#mask0_212_2458)">
        <rect x="-10.6206" y="-12.903" width="151.045" height="108.706" fill="black" />
    </g>
    <defs>
        <clipPath id="clip0_212_2458">
            <rect width="115" height="46.3433" fill="white" transform="translate(0.25 0.828369)" />
        </clipPath>
    </defs>
</svg>