<svg width="107" height="102" viewBox="0 0 107 102" fill="none" xmlns="http://www.w3.org/2000/svg">
    <path fill-rule="evenodd" clip-rule="evenodd" d="M50.5384 0.00282308C59.7302 0.155532 66.6113 7.43267 74.8648 11.4741C85.4578 16.6612 100.936 16.2293 105.689 27.0086C110.384 37.6536 101.353 49.2866 96.1244 59.6807C91.648 68.5795 85.1363 75.6115 77.8302 82.3914C69.4174 90.1984 62.0159 101.524 50.5384 101.984C39.017 102.445 29.5321 93.0038 21.6086 84.642C14.7609 77.4154 12.6289 67.6411 9.16 58.316C5.50268 48.4844 -2.59819 38.6875 0.825412 28.7723C4.24635 18.8649 16.5342 15.912 25.6166 10.656C33.6307 6.01805 41.276 -0.151059 50.5384 0.00282308Z" fill="#FFF6D2"/>
    <path d="M59.0049 42C59.5572 42 60.0049 42.4477 60.0049 43V48.5C58.6242 48.5 57.5049 49.6193 57.5049 51C57.5049 52.3807 58.6242 53.5 60.0049 53.5V59C60.0049 59.5523 59.5572 60 59.0049 60H41.0049C40.4526 60 40.0049 59.5523 40.0049 59V53.5C41.3856 53.5 42.5049 52.3807 42.5049 51C42.5049 49.6193 41.3856 48.5 40.0049 48.5V43C40.0049 42.4477 40.4526 42 41.0049 42H59.0049ZM58.0049 44H42.0049V46.968L42.1608 47.0491C43.4994 47.781 44.4252 49.1735 44.5 50.7882L44.5049 51C44.5049 52.7042 43.5576 54.1871 42.1608 54.9509L42.0049 55.031V58H58.0049V55.031L57.849 54.9509C56.5104 54.219 55.5846 52.8265 55.5098 51.2118L55.5049 51C55.5049 49.2958 56.4522 47.8129 57.849 47.0491L58.0049 46.968V44Z" fill="#132FBA"/>
</svg>