<svg width="46" height="46" viewBox="0 0 46 46" fill="none" xmlns="http://www.w3.org/2000/svg">
    <mask id="mask0_386_194" style="mask-type:alpha" maskUnits="userSpaceOnUse" x="0" y="0" width="46" height="46">
        <g clip-path="url(#clip0_386_194)">
            <path d="M23.125 2.98438C13.6496 2.98438 5.96875 10.6652 5.96875 20.1406C5.96875 24.8766 7.88768 29.1648 10.9912 32.2692C14.0957 35.3754 21.4094 39.8703 21.8383 44.5883C21.9026 45.2957 22.4147 45.875 23.125 45.875C23.8353 45.875 24.3474 45.2957 24.4117 44.5883C24.8406 39.8703 32.1543 35.3754 35.2588 32.2692C38.3623 29.1648 40.2812 24.8766 40.2812 20.1406C40.2812 10.6652 32.6004 2.98438 23.125 2.98438Z" fill="#FF4433"/>
            <path d="M23.125 26.1457C26.4414 26.1457 29.1297 23.4573 29.1297 20.141C29.1297 16.8247 26.4414 14.1364 23.125 14.1364C19.8088 14.1364 17.1204 16.8247 17.1204 20.141C17.1204 23.4573 19.8088 26.1457 23.125 26.1457Z" fill="white"/>
        </g>
    </mask>
    <g mask="url(#mask0_386_194)">
        <rect x="-1.81079" y="-0.0810547" width="47.8108" height="46.1622" fill="black"/>
        <path d="M23.125 26.1457C26.4414 26.1457 29.1297 23.4573 29.1297 20.141C29.1297 16.8247 26.4414 14.1364 23.125 14.1364C19.8088 14.1364 17.1204 16.8247 17.1204 20.141C17.1204 23.4573 19.8088 26.1457 23.125 26.1457Z" fill="#DCDEF8"/>
    </g>
    <defs>
        <clipPath id="clip0_386_194">
            <rect width="45.75" height="45.75" fill="white" transform="translate(0.25 0.125)"/>
        </clipPath>
    </defs>
</svg>
