<svg xmlns="http://www.w3.org/2000/svg" width="33" height="46" viewBox="0 0 33 46" fill="none">
    <g clip-path="url(#clip0_212_2471)">
        <path
                d="M21.121 1.2483C19.5956 0.772109 17.9314 0.5 16.2326 0.5C11.3442 0.5 6.94117 2.67687 3.99426 6.11224L11.5522 12.3367L21.121 1.2483Z"
                fill="#ADADAD" />
        <path
                d="M3.99431 6.11224C1.67145 8.83333 0.25 12.3707 0.25 16.1803C0.25 19.1395 0.839382 21.5204 1.8448 23.6633L11.5523 12.3367L3.99431 6.11224Z"
                fill="#969696" />
        <path
                d="M16.2673 10.1939C19.6649 10.1939 22.4038 12.8809 22.4038 16.2143C22.4038 17.6769 21.8491 19.0374 20.9477 20.0918C20.9477 20.0918 25.7668 14.4456 30.4818 8.96938C28.5403 5.29591 25.1774 2.50679 21.121 1.24829L11.5522 12.3367C12.6963 11.0442 14.3605 10.1939 16.2673 10.1939Z"
                fill="#222222" />
        <path
                d="M16.2674 22.2007C12.8698 22.2007 10.1309 19.5136 10.1309 16.1803C10.1309 14.7177 10.6509 13.3571 11.5523 12.3367L1.84485 23.6633C3.50899 27.2687 6.28255 30.1939 9.12546 33.8333L20.9478 20.0578C19.8037 21.3844 18.1395 22.2007 16.2674 22.2007Z"
                fill="#5F5F5F" />
        <path
                d="M20.7397 37.6428C26.0788 29.4455 32.2846 25.7381 32.2846 16.2143C32.2846 13.5952 31.6259 11.1462 30.4818 8.96936L9.12537 33.8333C10.0268 34.9898 10.9629 36.3163 11.8643 37.6768C15.1232 42.6088 14.2218 45.534 16.302 45.534C18.3821 45.534 17.4807 42.5748 20.7397 37.6428Z"
                fill="black" />
    </g>
    <defs>
        <clipPath id="clip0_212_2471">
            <rect width="32" height="45" fill="white" transform="translate(0.25 0.5)" />
        </clipPath>
    </defs>
</svg>