<svg width="99" height="102" viewBox="0 0 99 102" fill="none" xmlns="http://www.w3.org/2000/svg">
    <path fill-rule="evenodd" clip-rule="evenodd" d="M48.3572 0.0821854C59.4661 -0.479896 71.0686 1.77719 79.7428 8.83288C88.2175 15.7263 91.2293 26.918 94.3261 37.4739C97.3436 47.7593 101.306 58.7917 97.3154 68.7308C93.4114 78.4538 82.5359 82.4377 73.9277 88.2765C65.7194 93.8441 58.1952 102.83 48.3572 101.938C38.6114 101.055 33.9028 89.6395 25.9081 83.9225C17.7395 78.0812 4.97901 77.5108 1.12456 68.1626C-2.73916 58.7918 4.34533 48.7969 7.44289 39.1382C10.5402 29.4805 11.8746 18.8607 19.1689 11.8977C26.9865 4.43517 37.6308 0.624911 48.3572 0.0821854Z" fill="#132FBA"/>
    <path d="M58 59H44V60C44 60.5523 43.5523 61 43 61H42C41.4477 61 41 60.5523 41 60V50L43.4805 44.2122C43.7957 43.4768 44.5187 43 45.3188 43H56.6812C57.4813 43 58.2043 43.4768 58.5195 44.2122L61 50V60C61 60.5523 60.5523 61 60 61H59C58.4477 61 58 60.5523 58 60V59ZM59 52H43V57H59V52ZM43.1759 50H58.8241L56.6812 45H45.3188L43.1759 50ZM45.5 56C44.6716 56 44 55.3284 44 54.5C44 53.6716 44.6716 53 45.5 53C46.3284 53 47 53.6716 47 54.5C47 55.3284 46.3284 56 45.5 56ZM56.5 56C55.6716 56 55 55.3284 55 54.5C55 53.6716 55.6716 53 56.5 53C57.3284 53 58 53.6716 58 54.5C58 55.3284 57.3284 56 56.5 56Z" fill="#FFFEFA"/>
</svg>